<?xml version="1.0" encoding="UTF-8" standalone="no"?>
<!-- Created with Inkscape (http://www.inkscape.org/) -->

<svg
   xmlns:dc="http://purl.org/dc/elements/1.1/"
   xmlns:cc="http://creativecommons.org/ns#"
   xmlns:rdf="http://www.w3.org/1999/02/22-rdf-syntax-ns#"
   xmlns:svg="http://www.w3.org/2000/svg"
   xmlns="http://www.w3.org/2000/svg"
   xmlns:xlink="http://www.w3.org/1999/xlink"
   xmlns:sodipodi="http://sodipodi.sourceforge.net/DTD/sodipodi-0.dtd"
   xmlns:inkscape="http://www.inkscape.org/namespaces/inkscape"
   width="16"
   height="16"
   viewBox="0 0 16 16"
   id="svg2"
   version="1.1"
   inkscape:version="0.91 r13725"
   inkscape:export-filename="/home/cless/lliurex.png"
   inkscape:export-xdpi="90"
   inkscape:export-ydpi="90"
   sodipodi:docname="llx-avatar.svg">
  <defs
     id="defs4">
    <linearGradient
       inkscape:collect="always"
       id="linearGradient4179">
      <stop
         style="stop-color:#999999;stop-opacity:1"
         offset="0"
         id="stop4181" />
      <stop
         style="stop-color:#cccccc;stop-opacity:1"
         offset="1"
         id="stop4183" />
    </linearGradient>
    <linearGradient
       inkscape:collect="always"
       id="linearGradient4227">
      <stop
         style="stop-color:#292c2f;stop-opacity:1"
         offset="0"
         id="stop4229" />
      <stop
         style="stop-color:#000000;stop-opacity:0;"
         offset="1"
         id="stop4231" />
    </linearGradient>
    <linearGradient
       inkscape:collect="always"
       xlink:href="#linearGradient4159"
       id="linearGradient4158"
       x1="409.57144"
       y1="543.79797"
       x2="409.57144"
       y2="503.798"
       gradientUnits="userSpaceOnUse"
       gradientTransform="matrix(1.1250015,0,0,1,-51.071966,0)" />
    <linearGradient
       inkscape:collect="always"
       id="linearGradient4159">
      <stop
         style="stop-color:#1d1e1e;stop-opacity:1"
         offset="0"
         id="stop4161" />
      <stop
         style="stop-color:#44484c;stop-opacity:1"
         offset="1"
         id="stop4163" />
    </linearGradient>
    <linearGradient
       inkscape:collect="always"
       id="linearGradient4435-2">
      <stop
         style="stop-color:#c61423;stop-opacity:1"
         offset="0"
         id="stop4437-6" />
      <stop
         style="stop-color:#dc2b41;stop-opacity:1"
         offset="1"
         id="stop4439-7" />
    </linearGradient>
    <linearGradient
       inkscape:collect="always"
       id="linearGradient4143">
      <stop
         style="stop-color:#197cf1;stop-opacity:1"
         offset="0"
         id="stop4145" />
      <stop
         style="stop-color:#20bcfa;stop-opacity:1"
         offset="1"
         id="stop4147" />
    </linearGradient>
    <linearGradient
       inkscape:collect="always"
       id="linearGradient5022">
      <stop
         style="stop-color:#ffffff;stop-opacity:1;"
         offset="0"
         id="stop5024" />
      <stop
         style="stop-color:#ffffff;stop-opacity:0;"
         offset="1"
         id="stop5026" />
    </linearGradient>
    <linearGradient
       inkscape:collect="always"
       xlink:href="#linearGradient4159"
       id="linearGradient3156"
       gradientUnits="userSpaceOnUse"
       gradientTransform="matrix(1.1250015,0,0,1,-437.64341,504.56422)"
       x1="409.57144"
       y1="543.79797"
       x2="409.57144"
       y2="503.798" />
    <linearGradient
       inkscape:collect="always"
       xlink:href="#linearGradient4435-2"
       id="linearGradient3158"
       gradientUnits="userSpaceOnUse"
       gradientTransform="matrix(-2.835215,0,0,2.8387461,45.655038,-1933.2836)"
       x1="7.2851796"
       y1="1050.339"
       x2="7.2851796"
       y2="1038.3619" />
    <linearGradient
       inkscape:collect="always"
       xlink:href="#linearGradient4143"
       id="linearGradient3160"
       gradientUnits="userSpaceOnUse"
       gradientTransform="translate(-386.57144,504.56422)"
       x1="396.57144"
       y1="520.79797"
       x2="396.57144"
       y2="503.798" />
    <linearGradient
       inkscape:collect="always"
       xlink:href="#linearGradient4227"
       id="linearGradient3162"
       gradientUnits="userSpaceOnUse"
       gradientTransform="translate(-2.0000119,1004.3622)"
       x1="7.9999962"
       y1="4"
       x2="22.000011"
       y2="18.000015" />
    <linearGradient
       inkscape:collect="always"
       xlink:href="#linearGradient5022"
       id="linearGradient3164"
       gradientUnits="userSpaceOnUse"
       gradientTransform="translate(-386.57144,504.56422)"
       x1="396.57144"
       y1="527.79797"
       x2="396.57144"
       y2="504.798" />
    <linearGradient
       gradientUnits="userSpaceOnUse"
       xlink:href="#linearGradient5022"
       id="linearGradient3613"
       y2="138.66119"
       x2="48"
       y1="20.220806"
       x1="48" />
    <clipPath
       id="clipPath3613">
      <rect
         style="fill:#ffffff;fill-opacity:1;fill-rule:nonzero;stroke:none"
         id="rect3615"
         y="6"
         x="6"
         ry="6"
         rx="6"
         height="84"
         width="84" />
    </clipPath>
    <filter
       id="filter3794"
       height="1.3839999"
       width="1.3839999"
       y="-0.192"
       x="-0.192"
       style="color-interpolation-filters:sRGB">
      <feGaussianBlur
         stdDeviation="5.28"
         id="feGaussianBlur3796" />
    </filter>
    <linearGradient
       gradientTransform="matrix(1.0238095,0,0,1.0119048,-1.1428571,-98.071429)"
       gradientUnits="userSpaceOnUse"
       xlink:href="#ButtonShadow-0"
       id="linearGradient2918"
       y2="90.238609"
       x2="32.251034"
       y1="6.1317081"
       x1="32.251034" />
    <linearGradient
       gradientTransform="matrix(1.0058652,0,0,0.994169,100,0)"
       gradientUnits="userSpaceOnUse"
       id="ButtonShadow-0"
       y2="7.0165396"
       x2="45.447727"
       y1="92.539597"
       x1="45.447727">
      <stop
         offset="0"
         style="stop-color:#000000;stop-opacity:1"
         id="stop3750-8" />
      <stop
         offset="1"
         style="stop-color:#000000;stop-opacity:0.58823532"
         id="stop3752-5" />
    </linearGradient>
    <linearGradient
       gradientTransform="translate(0,-97)"
       gradientUnits="userSpaceOnUse"
       xlink:href="#ButtonShadow-0"
       id="linearGradient3721"
       y2="90.238609"
       x2="32.251034"
       y1="6.1317081"
       x1="32.251034" />
    <clipPath
       id="clipPath3613-4">
      <rect
         style="fill:#ffffff;fill-opacity:1;fill-rule:nonzero;stroke:none"
         id="rect3615-9"
         y="6"
         x="6"
         ry="6"
         rx="6"
         height="84"
         width="84" />
    </clipPath>
    <filter
       id="filter3794-1"
       height="1.3839999"
       width="1.3839999"
       y="-0.192"
       x="-0.192"
       style="color-interpolation-filters:sRGB">
      <feGaussianBlur
         stdDeviation="5.28"
         id="feGaussianBlur3796-5" />
    </filter>
    <radialGradient
       gradientTransform="matrix(1.1573129,0,0,0.99590774,198.06505,981.85399)"
       gradientUnits="userSpaceOnUse"
       xlink:href="#linearGradient5022"
       id="radialGradient3619"
       fy="90.171875"
       fx="48"
       r="42"
       cy="90.171875"
       cx="48" />
    <linearGradient
       gradientUnits="userSpaceOnUse"
       xlink:href="#linearGradient5022"
       id="linearGradient3188"
       y2="63.893143"
       x2="36.357143"
       y1="6"
       x1="36.357143"
       gradientTransform="translate(205.61607,981.65686)" />
    <linearGradient
       gradientUnits="userSpaceOnUse"
       xlink:href="#linearGradient3614"
       id="linearGradient3617"
       y2="5.9877172"
       x2="48"
       y1="90"
       x1="48"
       gradientTransform="translate(205.61607,981.65686)" />
    <linearGradient
       id="linearGradient3614">
      <stop
         offset="0"
         style="stop-color:#0185c9;stop-opacity:1"
         id="stop3616" />
      <stop
         offset="1"
         style="stop-color:#029bed;stop-opacity:1"
         id="stop3618" />
    </linearGradient>
    <linearGradient
       gradientTransform="matrix(1.0238095,0,0,-1.0119048,204.47321,1079.7283)"
       gradientUnits="userSpaceOnUse"
       xlink:href="#ButtonShadow-0"
       id="linearGradient3780"
       y2="90.238609"
       x2="32.251034"
       y1="6.1317081"
       x1="32.251034" />
    <linearGradient
       gradientTransform="matrix(1.0238095,0,0,1.0119048,204.47321,-1079.7283)"
       gradientUnits="userSpaceOnUse"
       xlink:href="#ButtonShadow-0"
       id="linearGradient3725"
       y2="90.238609"
       x2="32.251034"
       y1="6.1317081"
       x1="32.251034" />
    <linearGradient
       inkscape:collect="always"
       xlink:href="#linearGradient4179"
       id="linearGradient4185"
       x1="6.875"
       y1="1053.0735"
       x2="6.875"
       y2="1041.3354"
       gradientUnits="userSpaceOnUse"
       gradientTransform="matrix(1.0333603,0,0,1.0333603,-0.31634115,-37.125404)" />
  </defs>
  <sodipodi:namedview
     id="base"
     pagecolor="#ffffff"
     bordercolor="#666666"
     borderopacity="1.0"
     inkscape:pageopacity="0.0"
     inkscape:pageshadow="2"
     inkscape:zoom="32"
     inkscape:cx="0.27175942"
     inkscape:cy="4.5221035"
     inkscape:document-units="px"
     inkscape:current-layer="layer1"
     showgrid="false"
     units="px"
     borderlayer="true"
     inkscape:window-width="1920"
     inkscape:window-height="1004"
     inkscape:window-x="0"
     inkscape:window-y="24"
     inkscape:window-maximized="1" />
  <metadata
     id="metadata7">
    <rdf:RDF>
      <cc:Work
         rdf:about="">
        <dc:format>image/svg+xml</dc:format>
        <dc:type
           rdf:resource="http://purl.org/dc/dcmitype/StillImage" />
        <dc:title />
      </cc:Work>
    </rdf:RDF>
  </metadata>
  <g
     inkscape:label="Capa 1"
     inkscape:groupmode="layer"
     id="layer1"
     transform="translate(0,-1036.3622)">
    <path
       style="color:#000000;display:inline;overflow:visible;visibility:visible;opacity:0.68500001;fill:#000000;fill-opacity:1;fill-rule:nonzero;stroke:none;stroke-width:0.80500001;stroke-linecap:square;stroke-linejoin:miter;stroke-miterlimit:4;stroke-dasharray:none;stroke-opacity:1;marker:none;enable-background:accumulate"
       d="m 7.8444465,1037.2272 c 0.01855,0.3913 0.07663,0.7829 0.02891,1.1741 l -1.950637,-0.793 c 0.248237,0.2694 0.467807,0.5389 0.632222,0.8083 -2.174991,0.088 -3.990347,1.7116 -4.294486,3.8706 -0.216674,0.044 -0.384441,-0.055 -1.011324,-0.1465 0.123852,3.5295 2.780273,4.9967 4.870193,5.2204 l -0.03277,0.7181 c -1.379039,0.5302 -2.558429,1.7995 -2.883472,3.5073 l 6.647168,0 c -0.21487,-1.0179 -0.122865,-2.3349 -1.485382,-3.5011 -0.231902,-0.099 -0.469486,-0.1603 -0.707395,-0.1954 0.02023,-0.2037 0.02083,-0.4076 0.0039,-0.6109 1.67923,-0.3977 3.1723665,-1.7269 3.5176995,-3.5201 0.349161,0.1416 0.7194,0.2149 1.092899,0.2163 1.716271,0 3.109059,-1.4858 3.109066,-3.3191 6e-6,-1.8334 -1.392785,-3.3191 -3.109066,-3.3191 -1.21611,0 -2.3170245,0.759 -2.8218725,1.9382 z m -7.05274893,3.5623 c -0.0089,0 -0.01663,7e-4 -0.02506,0.011 -0.139334,0.037 -0.189205,0.3085 -0.109868,0.607 0.07934,0.299 0.257718,0.5116 0.39706693,0.475 0.139339,-0.035 0.187266,-0.3083 0.10794,-0.6071 -0.07378,-0.2778 -0.23376993,-0.4849 -0.37008093,-0.4788 z"
       id="path4136-4-5"
       inkscape:connector-curvature="0"
       sodipodi:nodetypes="cccccccccccccccssccccccccc" />
    <path
       style="color:#000000;display:inline;overflow:visible;visibility:visible;opacity:1;fill:url(#linearGradient4185);fill-opacity:1;fill-rule:nonzero;stroke:none;stroke-width:0.80500883;stroke-linecap:square;stroke-linejoin:miter;stroke-miterlimit:4;stroke-dasharray:none;stroke-opacity:1;marker:none;enable-background:accumulate"
       d="m 7.7986036,1037.0662 c 0.018146,0.3852 0.074973,0.7709 0.028286,1.156 l -1.9083857,-0.7807 c 0.2428604,0.2652 0.4576743,0.5306 0.6185282,0.7958 -2.1278802,0.087 -3.9039148,1.6852 -4.2014657,3.8111 -0.2119805,0.043 -0.4842059,0.055 -1.0975104,-0.036 0.1211694,3.4752 2.828143,4.811 4.872795,5.0312 l -0.032058,0.7071 c -1.349169,0.5221 -2.5030127,1.7718 -2.8210153,3.4533 3.573719,0 4.0645306,0 6.503189,0 -0.1484514,-0.9401 -0.1202051,-2.2989 -1.4532095,-3.4472 -0.226879,-0.098 -0.4593165,-0.1578 -0.6920726,-0.1923 0.019789,-0.2007 0.020377,-0.4014 0.00378,-0.6016 1.642858,-0.3915 3.1036534,-1.7003 3.4415064,-3.466 0.341597,0.1395 0.703818,0.2117 1.069225,0.2131 1.679097,0 3.041717,-1.463 3.041724,-3.268 5e-6,-1.8052 -1.362618,-3.268 -3.041724,-3.268 -1.189767,0 -2.2668373,0.7472 -2.7607493,1.9083 z m -6.89998338,3.5075 c -0.00868,0 -0.016268,7e-4 -0.024515,0.011 -0.1363158,0.037 -0.1851069,0.3038 -0.1074881,0.5977 0.077616,0.2944 0.25213558,0.5037 0.38846578,0.4677 0.1363209,-0.035 0.1832097,-0.3036 0.1056024,-0.5978 -0.07218,-0.2735 -0.228707,-0.4774 -0.36206528,-0.4714 z"
       id="path4136-4"
       inkscape:connector-curvature="0"
       sodipodi:nodetypes="cccccccccccccccssccccccccc" />
  </g>
</svg>
